<?xml version="1.0" encoding="UTF-8"?>
<svg version="1.1" xmlns="http://www.w3.org/2000/svg" width="158" height="158">
<path d="M0 0 C26.54033654 -3.65233989 26.54033654 -3.65233989 37.59005737 3.92114258 C48.26038263 12.03503416 60.45281359 23.02332895 62.64753723 36.84710693 C63.4871405 45.37276783 62.49227112 53.58801243 61 62 C51.76 62.33 42.52 62.66 33 63 C35.02125 64.65 37.0425 66.3 39.125 68 C61.75974571 87.35331138 61.75974571 87.35331138 62.859375 99.984375 C63.38349742 107.73213893 61.94565844 115.29963841 61 123 C51.1 123 41.2 123 31 123 C31 132.9 31 142.8 31 153 C2.51204975 156.78158632 2.51204975 156.78158632 -9.8046875 147.4453125 C-19.66318744 139.36455617 -30.56162292 129.26773889 -32.64300537 116.15289307 C-33.48509527 107.62584445 -32.49259572 99.41381733 -31 91 C-21.76 90.67 -12.52 90.34 -3 90 C-5.02125 88.33839844 -7.0425 86.67679687 -9.125 84.96484375 C-31.77467189 65.498982 -31.77467189 65.498982 -32.89453125 53.2734375 C-33.26935719 45.86124656 -32.6052737 38.23672838 -31 31 C-30 30 -30 30 -27.13256836 29.88647461 C-25.88096924 29.89171143 -24.62937012 29.89694824 -23.33984375 29.90234375 C-22.12417725 29.90484131 -20.90851074 29.90733887 -19.65600586 29.90991211 C-18.09889893 29.91901611 -16.54179199 29.92812012 -14.9375 29.9375 C-10.008125 29.958125 -5.07875 29.97875 0 30 C0 20.1 0 10.2 0 0 Z M0 32 C0 41.57 0 51.14 0 61 C9.9 61 19.8 61 30 61 C30 51.43 30 41.86 30 32 C20.1 32 10.2 32 0 32 Z M0 92 C0 101.57 0 111.14 0 121 C9.9 121 19.8 121 30 121 C30 111.43 30 101.86 30 92 C20.1 92 10.2 92 0 92 Z " fill="#F7F7F7" transform="translate(68,2)"/>
</svg>
