<!DOCTYPE svg PUBLIC "-//W3C//DTD SVG 1.1//EN" "http://www.w3.org/Graphics/SVG/1.1/DTD/svg11.dtd">
<!-- Uploaded to: SVG Repo, www.svgrepo.com, Transformed by: SVG Repo Mixer Tools -->
<svg height="102px" width="102px" version="1.1" id="Layer_1" xmlns="http://www.w3.org/2000/svg" xmlns:xlink="http://www.w3.org/1999/xlink" viewBox="0 0 392.469 392.469" xml:space="preserve" fill="#000000">
<g id="SVGRepo_bgCarrier" stroke-width="0"/>
<g id="SVGRepo_tracerCarrier" stroke-linecap="round" stroke-linejoin="round"/>
<g id="SVGRepo_iconCarrier"> <path style="fill:#FFFFFF;" d="M334.028,309.01V35.685c0-7.628-6.271-13.899-13.899-13.899H72.404 c-7.628,0-13.899,6.271-13.899,13.899v321.099c0,7.628,6.271,13.899,13.899,13.899h199.951v-50.747 c0-6.012,4.849-10.925,10.925-10.925H334.028z"/> <path style="fill:#56ACE0;" d="M283.345,309.01h28.832V54.562c0-6.012-4.848-10.925-10.925-10.925H91.281 c-6.012,0-10.925,4.848-10.925,10.925v68.396h46.158c6.012,0,10.925,4.848,10.925,10.925c0,6.012-4.848,10.925-10.925,10.925H80.355 v30.772h19.782c6.012,0,10.925,4.848,10.925,10.925c0,6.012-4.848,10.925-10.925,10.925H80.355v140.735 c0,6.012,4.848,10.925,10.925,10.925h181.204v-28.962C272.485,313.859,277.333,309.01,283.345,309.01z"/> <polygon style="fill:#FFFFFF;" points="294.271,358.529 322.004,330.796 294.271,330.796 "/> <path style="fill:#FFC10D;" d="M239.903,176.808c0-6.206-5.042-11.184-11.184-11.184h-0.065l-22.691,42.408 c-4.073,7.628-15.063,7.628-19.265,0l-22.885-42.408c-6.206,0-11.184,5.042-11.184,11.184v65.939h87.273V176.808L239.903,176.808z"/> <g> <path style="fill:#FFFFFF;" d="M169.244,317.802h16.162v-17.519c0-6.012,4.848-10.925,10.925-10.925 c6.012,0,10.925,4.848,10.925,10.925v17.519h16.162v-53.269h-54.109v53.269H169.244z"/> <path style="fill:#FFFFFF;" d="M196.267,110.481c10.537,0,19.071-8.598,19.071-19.071s-8.598-19.006-19.071-19.006 s-19.071,8.598-19.071,19.071S185.729,110.481,196.267,110.481z"/> </g> <g> <path style="fill:#194F82;" d="M196.267,132.267c22.562,0,40.857-18.295,40.857-40.857s-18.295-40.857-40.857-40.857 S155.41,68.848,155.41,91.41S173.705,132.267,196.267,132.267z M196.267,72.404c10.537,0,19.071,8.598,19.071,19.071 s-8.598,19.006-19.071,19.006s-19.071-8.598-19.071-19.071S185.729,72.404,196.267,72.404z"/> <path style="fill:#194F82;" d="M228.719,143.774h-6.659c-4.008,0-7.758,2.263-9.568,5.689l-16.226,30.255l-16.226-30.19 c-1.939-3.556-5.56-5.689-9.568-5.689h-6.659c-18.23,0-32.97,14.739-32.97,32.97v76.8c0,6.012,4.848,10.925,10.925,10.925h5.689 v64.129c0,6.012,4.848,10.925,10.925,10.925h75.895c6.012,0,10.925-4.848,10.925-10.925v-64.129h5.689 c6.012,0,10.925-4.848,10.925-10.925v-76.8C261.689,158.578,246.949,143.774,228.719,143.774z M223.289,317.802h-16.162v-17.519 c0-6.012-4.848-10.925-10.925-10.925s-10.925,4.848-10.925,10.925v17.519h-16.162v-53.269h54.109v53.269H223.289z M152.63,242.683 v-65.939c0-6.206,5.042-11.184,11.184-11.184l22.82,42.408c4.073,7.628,15.063,7.628,19.265,0l22.691-42.408h0.065 c6.206,0,11.184,5.042,11.184,11.184v65.939H152.63L152.63,242.683z"/> <path style="fill:#194F82;" d="M320.129,0H72.404C52.687,0,36.719,15.968,36.719,35.685v321.099 c0,19.717,15.968,35.685,35.685,35.685h203.83c9.568,0,18.554-3.685,25.277-10.408l43.83-43.83 c6.723-6.723,10.408-15.709,10.408-25.277V35.685C355.814,15.968,339.846,0,320.129,0z M294.271,358.529v-27.733h27.733 L294.271,358.529z M272.485,319.935v50.747H72.404c-7.628,0-13.899-6.271-13.899-13.899V35.685c0-7.628,6.271-13.899,13.899-13.899 h247.661c7.628,0,13.899,6.271,13.899,13.899V309.01h-50.683C277.333,309.01,272.485,313.859,272.485,319.935z"/> </g> </g>
</svg>